# xmcd
#
# Track frame offsets:
#	150
#	14789
#	34422
#	50061
#	66352
#	76722
#	94702
#	113146
#	124209
#	138508
#	158789
#	172182
#
# Disc length: 2567 seconds
#
# Revision: 0
# Processed by: cddbd v1.5.2PL0 Copyright (c) Steve Scherf et al.
# Submitted via: dBpowerAMP V4.0
#
DISCID=ab0a050c
DTITLE=la mision blue band - tierra salvaje
DYEAR=2001
DGENRE=Blues
TTITLE0=Track01   leviatan
TTITLE1=Track02 tierra salvaje
TTITLE2=Track03 a donde ire
TTITLE3=Track04 se abre una puerta 
TTITLE4=Track05 drogas y alcohol 
TTITLE5=Track06 chicos locos
TTITLE6=Track07 locura de el milenio 
TTITLE7=Track08 fiesta en el salon
TTITLE8=Track09 trago amargo
TTITLE9=Track10 se libre
TTITLE10=Track11 esta noche
TTITLE11=Track12 bonus track  ( 15 años)
EXTD=
EXTT0=
EXTT1=
EXTT2=
EXTT3=
EXTT4=
EXTT5=
EXTT6=
EXTT7=
EXTT8=
EXTT9=
EXTT10=
EXTT11=
PLAYORDER=
